<?xml version="1.0" encoding="UTF-8" ?>
<!DOCTYPE svg PUBLIC "-//W3C//DTD SVG 1.1//EN" "http://www.w3.org/Graphics/SVG/1.1/DTD/svg11.dtd">
<svg width="1064pt" height="638pt" viewBox="0 0 1064 638" version="1.1" xmlns="http://www.w3.org/2000/svg">
<g id="#ffffffff">
</g>
<g id="#333732ff">
<path fill="#333732" opacity="1.00" d=" M 262.54 156.76 C 285.15 154.69 308.28 156.16 330.04 162.95 C 363.43 172.98 392.93 194.46 413.79 222.28 C 431.74 246.16 442.81 275.10 445.39 304.86 C 446.64 321.95 446.19 339.28 442.56 356.08 C 434.98 393.77 412.77 427.85 382.66 451.49 C 354.27 473.95 318.14 486.32 281.94 486.00 C 255.33 486.43 228.59 480.30 204.96 468.01 C 183.52 456.99 164.80 440.98 149.96 422.04 C 127.66 393.49 115.29 357.25 116.00 320.99 C 115.53 298.45 120.23 275.88 129.07 255.17 C 141.94 225.41 163.89 199.74 191.03 182.05 C 212.39 168.07 237.14 159.35 262.54 156.76 M 196.28 196.24 C 170.91 213.45 150.97 238.55 140.07 267.21 C 129.10 295.27 127.22 326.56 133.82 355.89 C 141.21 356.12 148.61 355.95 156.00 356.00 C 156.00 332.33 156.00 308.67 156.00 285.00 C 172.67 285.00 189.33 285.00 206.00 285.00 C 206.00 305.33 206.00 325.67 206.00 346.00 C 230.00 346.00 254.00 346.00 278.00 346.00 C 278.00 336.33 278.00 326.67 278.00 317.00 C 294.67 317.00 311.33 317.00 328.00 317.00 C 328.00 306.33 328.00 295.67 328.00 285.00 C 346.00 285.00 364.00 285.00 382.00 285.00 C 382.00 305.33 382.00 325.67 382.00 346.00 C 395.00 346.00 408.00 346.00 421.00 346.00 C 421.00 349.34 421.00 352.68 421.00 356.02 C 423.73 356.01 426.45 355.99 429.18 355.89 C 432.00 342.79 433.46 329.39 432.89 315.99 C 431.63 273.40 411.10 231.91 378.19 204.88 C 351.47 182.61 316.85 169.96 282.04 170.01 C 251.67 169.75 221.36 179.15 196.28 196.24 M 162.02 293.02 C 162.02 298.64 162.02 304.27 162.01 309.90 C 167.66 309.90 173.32 309.90 178.97 309.90 C 178.96 304.27 178.96 298.64 178.96 293.02 C 173.31 293.02 167.66 293.02 162.02 293.02 M 182.76 309.90 C 188.42 309.91 194.08 309.90 199.75 309.90 C 199.73 304.27 199.74 298.64 199.74 293.02 C 194.08 293.01 188.42 293.02 182.76 293.01 C 182.76 298.64 182.77 304.27 182.76 309.90 M 335.59 296.00 C 335.58 301.66 335.58 307.33 335.59 312.99 C 341.21 312.95 346.84 312.95 352.46 312.99 C 352.47 307.33 352.47 301.67 352.46 296.01 C 346.84 296.02 341.21 296.02 335.59 296.00 M 358.10 296.01 C 358.09 301.66 358.09 307.32 358.10 312.97 C 363.72 312.96 369.35 312.96 374.98 312.96 C 374.98 307.31 374.98 301.66 374.98 296.02 C 369.35 296.01 363.72 296.02 358.10 296.01 M 182.75 315.54 C 182.77 321.16 182.77 326.79 182.75 332.41 C 188.43 332.41 194.11 332.43 199.79 332.40 C 199.71 326.78 199.72 321.16 199.79 315.54 C 194.11 315.52 188.43 315.53 182.75 315.54 M 162.01 315.54 C 162.02 321.16 162.02 326.79 162.01 332.42 C 167.67 332.42 173.33 332.42 178.99 332.41 C 178.95 326.79 178.95 321.16 178.99 315.54 C 173.33 315.53 167.67 315.53 162.01 315.54 M 358.11 316.76 C 358.08 322.42 358.09 328.08 358.10 333.75 C 363.72 333.73 369.35 333.74 374.98 333.74 C 374.98 328.08 374.99 322.42 374.97 316.76 C 369.35 316.77 363.73 316.77 358.11 316.76 M 285.59 323.75 C 285.58 329.43 285.57 335.11 285.60 340.79 C 291.21 340.71 296.84 340.71 302.46 340.79 C 302.48 335.11 302.47 329.43 302.46 323.75 C 296.84 323.77 291.21 323.77 285.59 323.75 Z" />
<path fill="#333732" opacity="1.00" d=" M 248.00 219.00 C 250.33 212.66 252.66 206.33 255.00 200.00 C 257.33 206.33 259.67 212.67 262.00 219.00 C 257.33 219.00 252.67 219.00 248.00 219.00 Z" />
<path fill="#333732" opacity="1.00" d=" M 287.45 217.65 C 288.91 216.91 290.36 216.11 291.80 215.33 C 289.59 221.76 286.25 227.73 283.55 233.97 C 280.42 230.42 276.92 227.23 273.71 223.76 C 277.09 222.49 280.31 220.87 283.58 219.37 C 284.86 218.79 286.15 218.22 287.45 217.65 Z" />
<path fill="#333732" opacity="1.00" d=" M 218.40 216.73 C 218.76 216.66 219.48 216.52 219.84 216.45 C 225.49 219.23 231.23 221.79 236.95 224.42 C 233.44 227.60 230.23 231.08 226.75 234.29 C 225.48 230.92 223.87 227.69 222.36 224.42 C 221.79 223.11 221.22 221.80 220.65 220.50 C 219.99 219.19 219.21 217.94 218.40 216.73 Z" />
<path fill="#333732" opacity="1.00" d=" M 249.56 227.79 C 255.60 226.20 262.32 227.09 267.58 230.51 C 274.48 234.72 278.55 242.98 277.92 251.01 C 277.52 258.03 273.59 264.81 267.58 268.49 C 261.68 272.31 253.93 273.01 247.39 270.49 C 239.34 267.54 233.51 259.58 233.08 251.02 C 232.14 240.63 239.44 230.33 249.56 227.79 Z" />
<path fill="#333732" opacity="1.00" d=" M 285.00 245.00 C 291.33 247.33 297.66 249.65 303.97 252.00 C 297.65 254.34 291.33 256.67 285.00 259.00 C 285.00 254.33 285.00 249.67 285.00 245.00 Z" />
<path fill="#333732" opacity="1.00" d=" M 206.00 253.00 C 212.33 250.67 218.67 248.33 225.00 246.00 C 225.00 250.66 225.00 255.33 225.00 260.00 C 218.66 257.67 212.33 255.33 206.00 253.00 Z" />
<path fill="#333732" opacity="1.00" d=" M 221.21 286.68 C 223.40 280.23 226.74 274.25 229.48 268.02 C 232.58 271.59 236.08 274.78 239.29 278.24 C 235.92 279.52 232.69 281.13 229.42 282.63 C 228.12 283.21 226.81 283.78 225.51 284.36 C 224.05 285.10 222.63 285.90 221.21 286.68 Z" />
<path fill="#333732" opacity="1.00" d=" M 654.39 268.53 C 656.28 269.05 658.18 269.56 660.09 270.06 C 659.32 271.79 658.60 273.54 657.91 275.31 C 660.58 275.34 663.27 275.35 665.96 275.30 C 666.88 274.35 667.80 273.40 668.73 272.46 C 670.18 273.74 671.64 275.02 673.09 276.30 C 668.06 276.48 663.03 276.37 658.00 276.41 C 657.16 278.60 655.76 280.45 653.73 281.65 C 653.66 279.95 653.63 278.26 653.64 276.57 C 650.70 276.66 647.76 276.66 644.83 276.66 C 644.43 279.47 643.05 281.95 640.58 283.41 C 640.55 281.20 640.58 278.98 640.61 276.77 C 636.22 277.08 631.81 276.89 627.44 277.44 C 627.00 276.89 626.56 276.34 626.14 275.79 C 630.95 275.91 635.77 275.65 640.58 275.55 C 640.69 273.32 640.80 271.09 640.86 268.87 C 642.44 269.35 644.03 269.80 645.64 270.25 C 645.32 272.03 645.02 273.82 644.76 275.62 C 647.80 275.62 650.85 275.58 653.89 275.38 C 654.02 273.09 654.21 270.81 654.39 268.53 Z" />
<path fill="#333732" opacity="1.00" d=" M 754.51 268.36 C 756.83 269.20 759.15 270.04 761.48 270.88 C 758.84 275.41 759.00 280.92 757.11 285.75 C 762.80 285.38 768.51 285.82 774.20 285.50 C 775.55 284.44 776.68 283.11 777.89 281.89 C 779.41 283.39 780.95 284.87 782.49 286.36 C 773.88 286.69 765.26 286.41 756.67 287.06 C 755.72 289.38 754.74 291.70 753.75 294.00 C 758.81 294.06 763.88 293.91 768.94 293.78 C 769.68 292.81 770.43 291.85 771.19 290.89 C 772.85 291.98 774.53 293.06 776.22 294.12 C 772.39 298.77 768.80 303.62 764.36 307.74 C 770.16 311.45 776.82 313.27 783.44 314.87 C 779.90 315.94 776.63 317.73 774.17 320.54 C 769.42 317.64 765.04 314.18 761.01 310.35 C 754.49 314.69 747.54 318.46 740.17 321.14 C 746.70 316.93 753.89 313.46 759.15 307.56 C 756.70 303.58 754.83 299.29 753.47 294.83 C 748.48 304.02 741.91 312.50 733.66 318.98 C 735.61 315.88 738.22 313.27 740.31 310.27 C 745.34 303.32 748.91 295.41 751.29 287.19 C 748.62 287.18 745.95 287.18 743.28 287.25 C 741.69 288.38 739.97 289.35 738.26 290.27 C 738.97 283.91 740.41 277.66 741.25 271.33 C 743.06 272.27 744.86 273.24 746.66 274.23 C 745.57 278.09 744.47 281.95 743.41 285.82 C 746.18 285.81 748.95 285.81 751.74 285.80 C 753.16 280.08 753.95 274.22 754.51 268.36 M 754.24 295.06 C 756.01 298.85 758.30 302.41 761.31 305.35 C 764.06 301.98 766.52 298.38 768.73 294.63 C 763.89 294.57 759.08 295.09 754.24 295.06 Z" />
<path fill="#333732" opacity="1.00" d=" M 860.19 268.12 C 861.82 269.17 863.45 270.22 865.10 271.26 C 862.51 274.95 859.96 278.66 857.10 282.14 C 857.15 292.12 857.33 302.09 857.42 312.07 C 857.78 315.61 855.54 318.62 853.15 320.95 C 853.17 309.47 853.46 297.96 853.60 286.47 C 849.82 290.47 846.03 294.55 841.49 297.69 C 849.44 289.05 856.01 279.13 860.19 268.12 Z" />
<path fill="#333732" opacity="1.00" d=" M 920.83 267.93 C 922.78 268.40 924.75 268.82 926.74 269.18 C 926.41 271.07 926.15 272.96 925.93 274.86 C 930.73 274.62 935.54 274.53 940.35 274.61 C 941.09 273.86 941.85 273.11 942.61 272.36 C 944.60 273.81 946.57 275.32 948.31 277.09 C 945.36 277.92 942.41 278.77 939.70 280.21 C 940.09 278.56 940.48 276.90 940.89 275.25 C 930.02 275.60 919.12 275.91 908.27 276.45 C 906.46 280.07 904.24 283.65 900.34 285.29 C 898.63 280.34 905.29 278.22 904.98 273.23 C 909.35 277.12 915.35 274.43 920.56 274.96 C 920.60 272.61 920.70 270.27 920.83 267.93 Z" />
<path fill="#333732" opacity="1.00" d=" M 272.05 278.52 C 275.60 275.40 278.78 271.91 282.24 268.71 C 283.53 272.08 285.12 275.31 286.64 278.58 C 287.90 281.30 289.11 284.06 290.21 286.85 C 284.09 284.22 278.08 281.34 272.05 278.52 Z" />
<path fill="#333732" opacity="1.00" d=" M 860.09 288.15 C 864.96 282.22 869.35 275.78 871.51 268.33 C 873.17 269.51 874.86 270.67 876.56 271.82 C 874.25 274.32 872.03 276.89 869.85 279.49 C 874.60 279.28 879.36 279.11 884.11 278.77 C 885.91 278.73 886.65 276.72 887.87 275.69 C 889.31 276.90 890.78 278.11 892.23 279.33 C 886.61 279.50 881.01 280.02 875.39 280.25 C 875.40 283.48 875.40 286.71 875.38 289.95 C 878.22 289.83 881.06 289.73 883.91 289.58 C 884.80 288.65 885.69 287.73 886.59 286.82 C 887.82 287.95 889.07 289.08 890.29 290.25 C 885.32 290.47 880.34 290.63 875.39 291.07 C 875.40 294.52 875.39 297.97 875.42 301.42 C 879.73 300.75 885.35 302.49 888.09 298.09 C 889.36 299.23 890.63 300.38 891.90 301.54 C 886.40 301.95 880.89 301.99 875.39 302.21 C 874.73 307.64 877.33 314.43 872.79 318.70 C 872.27 319.20 871.23 320.21 870.72 320.72 C 870.52 307.11 871.42 293.50 871.23 279.90 C 866.68 281.38 864.00 285.64 860.09 288.15 Z" />
<path fill="#333732" opacity="1.00" d=" M 614.51 270.11 C 615.84 271.61 617.18 273.11 618.51 274.62 C 612.52 274.54 606.56 275.20 600.57 275.00 C 601.65 275.99 602.73 276.98 603.82 277.99 C 602.25 279.85 600.77 281.77 599.22 283.64 C 599.10 293.76 599.72 303.88 599.29 313.99 C 599.00 316.83 596.24 318.27 594.09 319.62 C 594.03 309.66 594.60 299.69 594.33 289.72 C 586.05 298.15 577.05 306.28 566.30 311.40 C 569.00 309.01 572.12 307.17 574.86 304.84 C 582.40 298.71 588.60 291.03 593.41 282.61 C 593.35 282.25 593.21 281.53 593.14 281.18 C 595.51 280.01 596.30 277.31 597.59 275.21 C 590.05 275.10 582.52 275.33 575.02 275.90 C 574.44 275.48 573.29 274.65 572.71 274.23 C 584.84 273.71 596.99 273.91 609.13 273.74 C 611.51 273.79 612.80 271.40 614.51 270.11 Z" />
<path fill="#333732" opacity="1.00" d=" M 717.73 273.31 C 718.77 272.22 719.81 271.14 720.87 270.07 C 722.35 271.40 723.80 272.77 725.24 274.17 C 720.19 274.12 715.14 274.33 710.10 274.49 C 711.52 275.01 712.94 275.51 714.38 276.02 C 712.40 281.44 713.82 287.37 713.40 293.01 C 715.76 292.90 718.14 292.81 720.52 292.75 C 721.72 291.51 722.93 290.28 724.16 289.06 C 725.67 290.69 727.16 292.34 728.66 293.99 C 723.57 293.93 718.48 294.23 713.40 294.21 C 713.32 300.48 713.56 306.76 713.32 313.03 C 713.25 316.41 710.31 318.47 707.80 320.18 C 707.75 311.50 707.86 302.82 707.79 294.14 C 705.06 294.18 702.35 294.29 699.63 294.46 C 699.78 307.59 688.48 317.07 677.14 321.33 C 680.86 318.32 685.27 316.13 688.34 312.35 C 692.80 307.49 694.62 300.88 694.95 294.42 C 690.40 294.32 685.84 294.52 681.35 295.20 C 680.60 294.58 679.87 293.97 679.14 293.36 C 684.36 293.33 689.58 293.35 694.80 293.34 C 694.71 287.09 695.15 280.83 694.61 274.60 C 691.19 274.56 687.78 274.86 684.41 275.34 C 683.76 274.76 683.13 274.18 682.50 273.60 C 694.25 273.76 705.98 273.26 717.73 273.31 M 697.27 274.73 C 698.01 275.13 699.49 275.92 700.24 276.31 C 699.12 281.80 699.84 287.44 699.66 293.00 C 702.36 293.00 705.07 293.00 707.79 293.00 C 707.84 286.80 708.11 280.60 707.99 274.39 C 704.41 274.37 700.82 274.35 697.27 274.73 Z" />
<path fill="#333732" opacity="1.00" d=" M 522.58 270.93 C 524.66 272.16 526.75 273.42 528.64 274.95 C 535.36 274.67 542.08 274.87 548.81 274.80 C 549.61 273.71 550.41 272.62 551.22 271.53 C 552.92 272.43 554.63 273.35 556.36 274.24 C 555.84 275.46 554.80 276.55 554.83 277.95 C 555.12 287.63 555.10 297.31 555.41 306.99 C 555.72 311.45 552.74 315.13 549.76 318.07 C 548.77 315.47 547.96 312.81 547.04 310.19 C 540.61 310.04 534.18 310.48 527.75 310.39 C 527.37 313.86 525.35 316.73 522.74 318.92 C 522.29 302.93 523.30 286.92 522.58 270.93 M 527.40 276.22 C 527.41 280.93 527.39 285.63 527.41 290.34 C 534.18 290.53 540.99 289.93 547.73 290.72 C 541.08 292.09 534.17 291.44 527.41 291.66 C 527.39 297.44 527.40 303.22 527.40 309.00 C 534.57 309.03 541.73 308.75 548.90 308.75 C 549.13 297.83 548.94 286.92 549.00 276.00 C 541.79 275.93 534.59 276.05 527.40 276.22 Z" />
<path fill="#333732" opacity="1.00" d=" M 765.59 271.97 C 768.56 273.41 772.21 274.19 774.16 277.11 C 773.50 279.23 771.72 281.89 769.17 281.18 C 768.37 277.96 767.63 274.67 765.59 271.97 Z" />
<path fill="#333732" opacity="1.00" d=" M 826.39 275.56 C 827.55 274.42 828.71 273.28 829.89 272.14 C 831.41 273.59 832.95 275.03 834.45 276.51 C 828.44 276.79 822.42 276.60 816.41 276.66 C 816.22 289.11 816.31 301.56 815.96 314.01 C 820.70 314.08 825.45 313.81 830.20 313.79 C 831.33 312.51 832.48 311.24 833.64 309.97 C 835.32 311.42 837.00 312.88 838.69 314.34 C 822.51 314.97 806.28 315.12 790.15 316.00 C 789.68 315.70 788.75 315.09 788.28 314.78 C 795.72 314.41 803.19 314.48 810.62 313.91 C 810.74 301.59 810.70 289.27 811.04 276.96 C 805.45 277.25 799.83 277.00 794.27 277.75 C 793.88 277.42 793.10 276.75 792.71 276.42 C 803.91 275.59 815.17 276.08 826.39 275.56 Z" />
<path fill="#333732" opacity="1.00" d=" M 933.09 281.62 C 934.03 280.69 934.98 279.76 935.95 278.83 C 937.35 280.08 938.75 281.32 940.16 282.58 C 933.94 282.52 927.74 283.01 921.53 283.06 C 922.96 284.10 924.39 285.14 925.85 286.17 C 921.28 288.61 917.04 291.61 912.60 294.26 C 918.64 294.02 924.77 293.35 930.80 294.15 C 930.85 294.35 930.97 294.75 931.02 294.95 C 927.48 295.36 923.97 295.97 920.48 296.59 C 922.60 297.15 924.74 297.67 926.90 298.12 C 925.73 300.73 925.50 303.57 925.57 306.40 C 929.60 306.23 934.57 307.08 936.96 302.97 C 938.35 304.29 939.75 305.59 941.14 306.92 C 935.93 306.99 930.73 307.19 925.52 307.25 C 925.39 310.21 925.39 313.18 925.38 316.15 C 930.54 315.98 935.71 315.89 940.88 315.79 C 941.89 314.94 942.90 314.10 943.93 313.26 C 945.32 314.34 946.72 315.43 948.13 316.52 C 932.19 317.80 916.12 316.41 900.24 318.30 C 899.67 317.72 899.10 317.15 898.55 316.59 C 905.90 316.75 913.24 316.17 920.59 316.34 C 920.59 313.35 920.59 310.36 920.59 307.37 C 916.32 307.53 912.06 307.93 907.80 308.06 C 907.21 307.79 906.01 307.27 905.41 307.00 C 910.45 306.35 915.55 306.71 920.61 306.28 C 920.61 303.09 920.61 299.89 920.43 296.71 C 916.19 297.11 912.09 298.22 908.06 299.54 C 907.23 297.81 906.43 296.08 905.63 294.35 C 907.44 294.34 909.27 294.34 911.11 294.34 C 914.44 290.81 917.69 287.21 920.46 283.22 C 916.54 283.08 912.61 283.17 908.76 283.92 C 908.54 283.55 908.10 282.79 907.88 282.42 C 916.28 282.22 924.68 281.82 933.09 281.62 Z" />
<path fill="#333732" opacity="1.00" d=" M 249.00 280.00 C 253.67 280.00 258.33 280.00 263.00 280.00 C 260.67 286.33 258.33 292.67 256.00 299.00 C 253.67 292.66 251.33 286.33 249.00 280.00 Z" />
<path fill="#333732" opacity="1.00" d=" M 649.32 279.29 C 650.55 280.17 651.80 281.05 653.06 281.94 C 652.27 282.97 651.49 284.00 650.73 285.04 C 653.66 284.89 656.60 284.79 659.54 284.56 C 660.01 283.93 660.94 282.68 661.40 282.06 C 663.07 283.23 664.72 284.43 666.38 285.63 C 663.28 288.51 660.26 291.49 657.15 294.36 C 663.05 296.52 669.15 298.14 675.34 299.21 C 672.49 300.16 670.21 302.12 668.18 304.27 C 663.33 302.18 658.62 299.67 654.65 296.15 C 648.37 300.19 641.55 303.25 634.73 306.25 C 634.00 309.98 633.93 313.81 634.66 317.55 C 633.09 319.06 631.02 319.54 628.90 319.58 C 629.17 316.49 630.74 312.73 628.07 310.25 C 628.66 310.05 629.85 309.64 630.44 309.44 C 634.60 302.16 637.25 294.09 641.48 286.84 C 639.85 292.28 638.20 297.74 635.93 302.95 C 636.19 303.51 636.47 304.08 636.76 304.64 C 642.03 301.11 647.48 297.77 652.21 293.50 C 651.00 291.58 649.82 289.63 648.65 287.69 C 646.08 290.16 643.48 292.61 640.71 294.87 C 644.00 289.92 647.19 284.87 649.32 279.29 M 648.54 286.63 C 650.08 288.63 651.76 290.52 653.57 292.29 C 655.53 290.15 657.37 287.91 659.17 285.63 C 655.60 285.58 652.02 285.85 648.54 286.63 Z" />
<path fill="#333732" opacity="1.00" d=" M 631.75 280.41 C 634.15 281.77 636.49 283.28 638.58 285.10 C 637.72 286.90 636.61 289.83 634.05 288.87 C 633.27 286.05 632.70 283.18 631.75 280.41 Z" />
<path fill="#333732" opacity="1.00" d=" M 928.74 287.75 C 932.96 289.76 937.32 291.73 940.62 295.17 C 939.56 296.93 938.25 298.51 936.86 300.02 C 935.61 297.96 934.48 295.84 933.15 293.84 C 932.12 291.51 930.26 289.73 928.74 287.75 Z" />
<path fill="#333732" opacity="1.00" d=" M 604.89 289.71 C 609.97 292.01 615.83 294.59 618.22 300.01 C 619.21 302.36 616.62 307.15 613.89 305.14 C 612.14 299.36 609.27 293.94 604.89 289.71 Z" />
<path fill="#333732" opacity="1.00" d=" M 626.03 290.45 C 628.25 291.76 631.02 292.70 632.30 295.12 C 633.15 297.31 630.97 298.98 629.02 299.24 C 627.84 296.37 627.33 293.28 626.03 290.45 Z" />
<path fill="#333732" opacity="1.00" d=" M 657.16 303.95 C 658.86 304.07 659.61 302.16 660.80 301.27 C 662.32 302.18 663.86 303.08 665.41 303.98 C 663.41 307.61 664.24 311.86 664.60 315.78 C 659.31 315.24 654.01 315.50 648.71 315.71 C 647.54 317.72 646.23 319.64 644.76 321.44 C 644.36 316.25 644.82 311.05 644.70 305.86 C 644.42 304.53 645.21 303.41 645.65 302.25 C 648.70 305.57 653.26 304.00 657.16 303.95 M 648.71 305.44 C 648.56 308.50 648.39 311.55 648.35 314.61 C 651.76 314.39 655.18 314.31 658.60 314.32 C 658.60 311.26 658.59 308.20 658.58 305.14 C 655.29 305.24 652.00 305.41 648.71 305.44 Z" />
<path fill="#333732" opacity="1.00" d=" M 362.82 321.44 C 365.30 321.45 367.79 321.45 370.29 321.43 C 370.29 323.96 370.29 326.49 370.29 329.02 C 367.79 329.02 365.30 329.02 362.81 329.02 C 362.81 326.49 362.81 323.96 362.82 321.44 Z" />
<path fill="#333732" opacity="1.00" d=" M 830.34 345.01 C 831.43 345.00 832.54 345.00 833.66 345.00 C 833.65 359.03 833.65 373.07 833.65 387.10 C 830.76 386.54 827.85 386.40 824.96 387.03 C 821.92 387.91 818.68 385.07 818.84 382.00 C 818.77 376.65 818.73 371.29 818.87 365.94 C 818.82 363.85 820.41 362.13 822.16 361.22 C 824.80 360.46 827.62 360.90 830.34 360.79 C 830.34 355.53 830.35 350.27 830.34 345.01 M 822.17 368.97 C 822.32 373.51 821.84 378.11 822.47 382.62 C 824.21 385.11 827.78 383.59 830.34 383.81 C 830.35 377.19 830.34 370.57 830.35 363.96 C 828.19 363.99 826.04 363.88 823.92 364.18 C 821.81 364.75 822.26 367.32 822.17 368.97 Z" />
<path fill="#333732" opacity="1.00" d=" M 840.04 350.57 C 841.15 350.58 842.28 350.59 843.42 350.61 C 843.40 352.13 843.39 353.67 843.40 355.20 C 842.54 355.20 840.83 355.19 839.98 355.18 C 839.98 353.64 840.01 352.10 840.04 350.57 Z" />
<path fill="#333732" opacity="1.00" d=" M 723.00 352.61 C 723.85 352.60 725.56 352.59 726.41 352.58 C 726.40 355.32 726.40 358.06 726.40 360.80 C 727.93 360.80 729.45 360.80 731.00 360.81 C 731.00 361.61 731.00 363.20 731.00 364.00 C 729.45 363.99 727.92 364.00 726.40 364.01 C 726.41 370.61 726.40 377.20 726.40 383.81 C 727.93 383.80 729.45 383.80 731.00 383.81 C 731.00 384.61 731.00 386.20 731.00 387.00 C 728.98 387.00 726.98 387.00 724.98 387.00 C 724.31 386.33 723.65 385.67 723.00 385.01 C 723.00 378.01 723.00 371.00 723.00 364.00 C 722.20 364.00 720.61 364.00 719.81 364.00 C 719.81 363.20 719.81 361.61 719.81 360.81 C 720.61 360.81 722.20 360.81 723.00 360.81 C 722.99 358.07 722.99 355.34 723.00 352.61 Z" />
<path fill="#333732" opacity="1.00" d=" M 785.59 352.58 C 786.44 352.59 788.15 352.60 789.00 352.60 C 788.99 355.34 788.99 358.08 789.00 360.82 C 790.46 360.81 791.93 360.80 793.40 360.80 C 793.40 361.60 793.40 363.20 793.40 364.00 C 791.92 363.99 790.46 364.00 789.00 364.00 C 789.00 370.60 788.99 377.21 789.00 383.81 C 790.46 383.81 791.93 383.80 793.40 383.80 C 793.40 384.62 793.40 386.25 793.40 387.07 C 790.96 386.63 786.53 388.12 785.74 384.87 C 785.37 377.93 785.70 370.97 785.61 364.03 C 784.49 364.00 783.39 363.98 782.30 363.96 C 782.32 362.89 782.36 361.82 782.40 360.76 C 783.20 360.78 784.79 360.82 785.59 360.84 C 785.59 358.09 785.59 355.33 785.59 352.58 Z" />
<path fill="#333732" opacity="1.00" d=" M 521.53 361.52 C 523.83 360.38 526.50 360.89 528.99 360.76 C 530.73 360.91 532.76 360.48 534.27 361.64 C 535.45 363.77 534.85 366.32 535.07 368.65 C 534.20 368.65 532.46 368.66 531.58 368.67 C 531.58 366.99 531.59 365.33 531.60 363.66 C 529.13 363.65 526.66 363.65 524.19 363.65 C 524.19 365.25 524.18 366.85 524.19 368.45 C 527.60 371.49 531.55 373.98 534.57 377.43 C 535.11 380.25 535.99 384.35 533.58 386.52 C 530.22 387.43 526.58 387.04 523.14 386.84 C 519.39 385.97 521.26 381.05 520.77 378.35 C 521.63 378.35 523.34 378.35 524.20 378.35 C 524.18 380.22 524.18 382.11 524.19 384.00 C 526.66 384.00 529.13 384.00 531.62 383.99 C 531.59 382.19 531.58 380.40 531.57 378.61 C 528.11 375.65 524.28 373.09 521.18 369.75 C 520.58 367.10 520.35 364.04 521.53 361.52 Z" />
<path fill="#333732" opacity="1.00" d=" M 540.81 360.81 C 541.65 360.81 543.35 360.81 544.19 360.81 C 544.19 368.55 544.19 376.29 544.19 384.03 C 546.90 383.84 549.62 383.67 552.35 383.52 C 552.44 376.02 552.14 368.51 552.48 361.02 C 553.27 360.91 554.84 360.68 555.62 360.57 C 555.69 369.43 555.64 378.28 555.65 387.14 C 553.47 386.86 551.30 386.15 549.10 386.64 C 546.61 386.82 543.83 387.92 541.54 386.45 C 540.68 385.14 540.84 383.52 540.79 382.05 C 540.81 374.97 540.81 367.89 540.81 360.81 Z" />
<path fill="#333732" opacity="1.00" d=" M 561.63 360.53 C 562.99 360.83 564.36 361.15 565.73 361.49 C 568.76 361.09 571.87 360.19 574.93 360.84 C 576.35 361.78 576.14 363.54 576.20 365.03 C 576.20 372.35 576.18 379.68 576.19 387.00 C 575.35 387.00 573.65 387.00 572.81 387.00 C 572.81 379.22 572.80 371.43 572.82 363.65 C 570.21 363.91 567.61 364.12 565.00 364.27 C 565.00 371.84 565.00 379.42 565.00 387.00 C 564.15 387.00 562.45 387.00 561.60 387.00 C 561.61 378.18 561.56 369.35 561.63 360.53 Z" />
<path fill="#333732" opacity="1.00" d=" M 582.34 387.00 C 582.36 378.23 582.32 369.47 582.37 360.70 C 586.54 362.13 590.75 360.37 594.97 360.69 C 596.55 360.74 596.95 362.65 596.96 363.91 C 597.08 371.60 596.95 379.30 597.00 387.00 C 596.15 387.00 594.45 387.00 593.60 387.00 C 593.59 379.21 593.61 371.42 593.58 363.64 C 590.94 363.91 588.29 364.12 585.65 364.29 C 585.66 371.86 585.64 379.43 585.66 387.00 C 584.54 386.99 583.44 386.99 582.34 387.00 Z" />
<path fill="#333732" opacity="1.00" d=" M 603.00 364.92 C 602.87 363.08 603.59 360.40 605.97 360.86 C 609.61 361.13 613.95 359.78 617.15 361.80 C 618.21 365.86 617.57 370.18 617.39 374.33 C 613.73 374.43 610.06 374.40 606.41 374.40 C 606.40 377.60 606.40 380.80 606.40 384.00 C 609.04 384.00 611.69 384.00 614.35 384.00 C 614.34 382.33 614.34 380.66 614.35 378.99 C 615.46 379.00 616.58 379.01 617.71 379.03 C 617.29 381.54 618.71 385.32 615.92 386.79 C 612.59 387.20 609.22 387.05 605.88 386.95 C 604.35 387.07 603.02 385.54 603.05 384.09 C 602.92 377.70 603.02 371.31 603.00 364.92 M 606.41 363.66 C 606.40 366.37 606.40 369.09 606.40 371.81 C 609.04 371.81 611.69 371.81 614.35 371.81 C 614.34 369.09 614.34 366.37 614.34 363.66 C 611.69 363.65 609.05 363.65 606.41 363.66 Z" />
<path fill="#333732" opacity="1.00" d=" M 622.10 360.78 C 623.01 360.79 624.83 360.82 625.75 360.83 C 627.14 367.75 628.61 374.65 630.13 381.55 C 631.71 374.64 633.23 367.72 634.82 360.81 C 635.66 360.81 637.34 360.81 638.18 360.81 C 635.92 369.52 633.88 378.30 631.69 387.03 C 630.62 386.99 629.57 386.95 628.52 386.91 C 626.37 378.20 624.27 369.48 622.10 360.78 Z" />
<path fill="#333732" opacity="1.00" d=" M 644.07 361.04 C 647.71 360.61 651.42 360.73 655.09 360.90 C 656.70 360.78 657.50 362.57 657.37 363.96 C 657.52 367.40 657.41 370.84 657.23 374.28 C 653.55 374.44 649.87 374.41 646.19 374.40 C 646.19 377.60 646.19 380.80 646.19 384.00 C 648.79 384.00 651.39 384.00 654.00 384.00 C 653.99 382.33 653.99 380.66 654.00 378.99 C 654.86 379.00 656.59 379.01 657.46 379.02 C 656.98 381.49 658.51 385.44 655.71 386.72 C 652.17 387.26 648.54 387.09 644.99 386.85 C 643.60 386.77 642.79 385.30 642.85 384.05 C 642.69 378.37 642.88 372.69 642.78 367.01 C 642.87 364.99 642.41 362.58 644.07 361.04 M 646.19 363.66 C 646.19 366.37 646.19 369.09 646.19 371.81 C 648.79 371.81 651.39 371.81 654.00 371.81 C 653.99 369.09 653.99 366.37 653.99 363.65 C 651.39 363.65 648.79 363.65 646.19 363.66 Z" />
<path fill="#333732" opacity="1.00" d=" M 663.37 360.57 C 664.69 360.85 666.02 361.16 667.35 361.49 C 670.24 361.39 674.07 359.21 676.35 361.80 C 676.87 364.29 676.61 366.87 676.68 369.41 C 675.56 369.41 674.45 369.41 673.34 369.42 C 673.34 367.49 673.33 365.56 673.34 363.65 C 671.10 363.89 668.87 364.09 666.65 364.29 C 666.66 371.85 666.64 379.42 666.66 386.99 C 665.54 386.99 664.44 386.99 663.35 387.00 C 663.36 378.19 663.31 369.38 663.37 360.57 Z" />
<path fill="#333732" opacity="1.00" d=" M 681.82 361.82 C 685.09 359.87 689.33 361.03 692.99 360.92 C 696.66 361.38 695.00 366.15 695.48 368.65 C 694.61 368.65 692.87 368.65 692.00 368.65 C 691.99 366.98 691.99 365.31 692.00 363.65 C 689.54 363.65 687.08 363.65 684.64 363.66 C 684.64 365.26 684.66 366.86 684.70 368.46 C 688.08 371.43 691.88 373.96 695.00 377.23 C 695.68 379.08 695.40 381.12 695.43 383.05 C 695.32 384.45 695.47 386.38 693.67 386.67 C 689.98 387.20 686.00 387.41 682.38 386.42 C 680.49 384.23 681.64 380.98 681.31 378.34 C 682.42 378.33 683.54 378.33 684.67 378.33 C 684.65 380.22 684.64 382.11 684.65 384.00 C 687.10 384.00 689.56 384.00 692.03 384.00 C 691.99 382.16 691.97 380.32 691.93 378.49 C 688.51 375.53 684.55 373.06 681.65 369.56 C 681.10 367.05 681.05 364.29 681.82 361.82 Z" />
<path fill="#333732" opacity="1.00" d=" M 701.45 363.24 C 701.62 359.92 705.78 360.98 708.00 360.76 C 710.60 361.20 715.15 359.49 715.86 363.11 C 716.22 366.85 716.11 370.65 715.57 374.37 C 711.93 374.42 708.29 374.39 704.66 374.41 C 704.65 377.60 704.65 380.80 704.65 384.00 C 707.30 384.00 709.95 384.00 712.60 384.00 C 712.59 382.33 712.59 380.66 712.60 379.00 C 713.46 379.00 715.19 379.00 716.06 379.00 C 715.69 381.58 717.03 385.64 713.87 386.86 C 710.31 387.12 706.69 387.20 703.15 386.77 C 701.47 386.47 701.32 384.39 701.34 383.03 C 701.41 376.43 701.18 369.83 701.45 363.24 M 704.66 363.66 C 704.65 366.37 704.65 369.09 704.65 371.81 C 707.30 371.81 709.94 371.81 712.60 371.81 C 712.59 369.09 712.59 366.37 712.59 363.66 C 709.94 363.65 707.30 363.65 704.66 363.66 Z" />
<path fill="#333732" opacity="1.00" d=" M 737.10 361.07 C 740.69 360.62 744.38 360.61 747.98 361.06 C 750.73 362.37 749.27 366.21 749.72 368.65 C 748.58 368.65 747.45 368.66 746.33 368.67 C 746.33 367.00 746.33 365.32 746.35 363.66 C 743.89 363.65 741.44 363.65 739.00 363.65 C 738.98 365.26 738.99 366.88 739.01 368.50 C 742.39 371.56 746.39 374.00 749.37 377.48 C 749.63 380.34 750.52 383.99 748.61 386.44 C 744.56 387.19 739.77 387.81 735.97 385.94 C 735.37 383.45 735.62 380.87 735.55 378.34 C 736.41 378.34 738.14 378.35 739.00 378.35 C 738.99 380.23 738.99 382.11 739.00 384.00 C 741.44 384.00 743.88 384.00 746.34 384.00 C 746.34 382.23 746.34 380.47 746.36 378.71 C 742.96 375.71 739.15 373.17 736.02 369.89 C 735.57 367.14 734.53 362.97 737.10 361.07 Z" />
<path fill="#333732" opacity="1.00" d=" M 764.30 364.91 C 764.38 363.48 764.29 361.43 766.08 361.04 C 769.65 360.62 773.31 360.62 776.89 361.06 C 779.45 362.60 777.99 366.19 778.48 368.65 C 777.61 368.65 775.87 368.65 775.00 368.65 C 774.99 366.98 774.99 365.31 775.00 363.65 C 772.55 363.65 770.11 363.65 767.67 363.66 C 767.65 365.21 767.64 366.77 767.63 368.33 C 770.98 371.39 774.83 373.92 777.97 377.21 C 778.77 380.03 778.60 383.17 777.97 386.03 C 774.13 387.75 769.45 387.19 765.42 386.46 C 763.46 384.29 764.64 380.99 764.31 378.34 C 765.42 378.33 766.54 378.33 767.67 378.33 C 767.65 380.22 767.64 382.10 767.65 384.00 C 770.09 384.00 772.53 384.00 774.99 384.00 C 774.99 382.22 775.00 380.44 775.03 378.66 C 771.84 375.89 768.40 373.41 765.35 370.49 C 763.85 369.05 764.41 366.75 764.30 364.91 Z" />
<path fill="#333732" opacity="1.00" d=" M 798.46 384.78 C 798.17 376.79 798.43 368.78 798.36 360.78 C 799.18 360.79 800.83 360.81 801.66 360.82 C 801.64 368.55 801.65 376.29 801.65 384.03 C 804.37 383.85 807.09 383.67 809.82 383.53 C 809.79 375.95 809.81 368.38 809.81 360.81 C 810.65 360.81 812.35 360.81 813.19 360.81 C 813.19 369.59 813.19 378.37 813.19 387.15 C 810.11 386.44 806.98 386.31 803.90 387.01 C 801.95 387.36 798.49 387.55 798.46 384.78 Z" />
<path fill="#333732" opacity="1.00" d=" M 840.00 360.81 C 840.85 360.81 842.55 360.80 843.40 360.80 C 843.40 369.53 843.40 378.26 843.40 387.00 C 842.55 387.00 840.85 387.00 840.00 387.00 C 840.00 378.27 840.00 369.54 840.00 360.81 Z" />
<path fill="#333732" opacity="1.00" d=" M 851.07 361.01 C 854.70 360.64 858.38 360.67 862.02 360.96 C 864.10 361.05 864.18 363.45 864.20 365.03 C 864.15 371.38 864.30 377.73 864.13 384.08 C 864.19 385.44 863.30 386.75 861.89 386.86 C 858.36 387.10 854.77 387.25 851.27 386.72 C 849.50 386.30 849.69 384.39 849.61 382.98 C 849.54 377.31 849.63 371.63 849.57 365.96 C 849.65 364.24 849.31 362.04 851.07 361.01 M 853.00 364.00 C 853.00 370.60 852.99 377.21 853.00 383.81 C 855.60 383.81 858.20 383.81 860.81 383.81 C 860.81 377.21 860.80 370.60 860.81 364.00 C 858.20 364.00 855.60 364.00 853.00 364.00 Z" />
<path fill="#333732" opacity="1.00" d=" M 755.01 382.34 C 756.33 382.34 757.66 382.34 759.00 382.34 C 758.99 383.89 758.99 385.44 759.00 387.00 C 757.66 387.00 756.32 387.00 755.00 387.00 C 754.99 385.44 754.99 383.89 755.01 382.34 Z" />
</g>
<g id="#d9fef1ff">
<path fill="#d9fef1" opacity="1.00" d=" M 162.02 293.02 C 167.66 293.02 173.31 293.02 178.96 293.02 C 178.96 298.64 178.96 304.27 178.97 309.90 C 173.32 309.90 167.66 309.90 162.01 309.90 C 162.02 304.27 162.02 298.64 162.02 293.02 Z" />
<path fill="#d9fef1" opacity="1.00" d=" M 358.10 296.01 C 363.72 296.02 369.35 296.01 374.98 296.02 C 374.98 301.66 374.98 307.31 374.98 312.96 C 369.35 312.96 363.72 312.96 358.10 312.97 C 358.09 307.32 358.09 301.66 358.10 296.01 Z" />
<path fill="#d9fef1" opacity="1.00" d=" M 182.75 315.54 C 188.43 315.53 194.11 315.52 199.79 315.54 C 199.72 321.16 199.71 326.78 199.79 332.40 C 194.11 332.43 188.43 332.41 182.75 332.41 C 182.77 326.79 182.77 321.16 182.75 315.54 Z" />
<path fill="#d9fef1" opacity="1.00" d=" M 285.59 323.75 C 291.21 323.77 296.84 323.77 302.46 323.75 C 302.47 329.43 302.48 335.11 302.46 340.79 C 296.84 340.71 291.21 340.71 285.60 340.79 C 285.57 335.11 285.58 329.43 285.59 323.75 Z" />
</g>
<g id="#fffee7ff">
<path fill="#fffee7" opacity="1.00" d=" M 182.76 309.90 C 182.77 304.27 182.76 298.64 182.76 293.01 C 188.42 293.02 194.08 293.01 199.74 293.02 C 199.74 298.64 199.73 304.27 199.75 309.90 C 194.08 309.90 188.42 309.91 182.76 309.90 M 187.43 297.71 C 187.45 300.20 187.45 302.69 187.44 305.18 C 189.96 305.18 192.49 305.18 195.02 305.19 C 195.02 302.69 195.02 300.20 195.02 297.71 C 192.49 297.71 189.96 297.71 187.43 297.71 Z" />
<path fill="#fffee7" opacity="1.00" d=" M 335.59 296.00 C 341.21 296.02 346.84 296.02 352.46 296.01 C 352.47 301.67 352.47 307.33 352.46 312.99 C 346.84 312.95 341.21 312.95 335.59 312.99 C 335.58 307.33 335.58 301.66 335.59 296.00 Z" />
<path fill="#fffee7" opacity="1.00" d=" M 162.01 315.54 C 167.67 315.53 173.33 315.53 178.99 315.54 C 178.95 321.16 178.95 326.79 178.99 332.41 C 173.33 332.42 167.67 332.42 162.01 332.42 C 162.02 326.79 162.02 321.16 162.01 315.54 Z" />
<path fill="#fffee7" opacity="1.00" d=" M 358.11 316.76 C 363.73 316.77 369.35 316.77 374.97 316.76 C 374.99 322.42 374.98 328.08 374.98 333.74 C 369.35 333.74 363.72 333.73 358.10 333.75 C 358.09 328.08 358.08 322.42 358.11 316.76 M 362.82 321.44 C 362.81 323.96 362.81 326.49 362.81 329.02 C 365.30 329.02 367.79 329.02 370.29 329.02 C 370.29 326.49 370.29 323.96 370.29 321.43 C 367.79 321.45 365.30 321.45 362.82 321.44 Z" />
</g>
<g id="#333733ff">
<path fill="#333733" opacity="1.00" d=" M 187.43 297.71 C 189.96 297.71 192.49 297.71 195.02 297.71 C 195.02 300.20 195.02 302.69 195.02 305.19 C 192.49 305.18 189.96 305.18 187.44 305.18 C 187.45 302.69 187.45 300.20 187.43 297.71 Z" />
</g>
</svg>
