<?xml version="1.0" encoding="UTF-8" ?>
<!DOCTYPE svg PUBLIC "-//W3C//DTD SVG 1.1//EN" "http://www.w3.org/Graphics/SVG/1.1/DTD/svg11.dtd">
<svg width="564pt" height="638pt" viewBox="0 0 564 638" version="1.1" xmlns="http://www.w3.org/2000/svg">
<g id="#ffffffff">
<path fill="#ffffff" opacity="1.00" d=" M 368.66 368.41 C 369.58 368.41 371.42 368.41 372.34 368.41 C 372.35 371.16 372.35 373.91 372.33 376.67 C 373.82 376.66 375.31 376.65 376.81 376.66 C 376.81 377.49 376.82 379.16 376.82 379.99 C 375.32 379.99 373.83 380.00 372.34 380.01 C 372.34 386.56 372.36 393.10 372.33 399.65 C 373.83 399.66 375.34 399.67 376.85 399.70 C 376.84 400.52 376.81 402.18 376.80 403.00 C 374.41 402.88 371.86 403.42 369.60 402.45 C 368.31 400.92 368.69 398.86 368.63 397.04 C 368.68 391.36 368.64 385.69 368.66 380.02 C 367.85 380.01 366.21 379.99 365.40 379.99 C 365.40 379.15 365.41 377.49 365.42 376.66 C 366.23 376.66 367.86 376.66 368.67 376.66 C 368.65 373.91 368.65 371.16 368.66 368.41 Z" />
<path fill="#ffffff" opacity="1.00" d=" M 228.14 376.39 C 229.47 376.58 230.84 376.75 232.09 377.30 C 235.42 377.47 240.67 374.48 242.65 378.30 C 243.05 386.51 242.69 394.77 242.81 403.00 C 241.60 402.99 240.39 402.99 239.19 403.00 C 239.19 395.25 239.19 387.50 239.19 379.76 C 236.64 379.95 234.10 380.19 231.57 380.43 C 231.63 387.95 231.57 395.47 231.60 402.99 C 230.40 402.99 229.20 402.99 228.00 403.00 C 228.08 394.13 227.83 385.25 228.14 376.39 Z" />
<path fill="#ffffff" opacity="1.00" d=" M 309.10 376.43 C 310.45 376.60 311.85 376.71 313.11 377.31 C 316.04 377.31 320.04 374.89 322.23 377.77 C 322.95 380.29 322.49 382.97 322.59 385.56 C 321.41 385.59 320.24 385.62 319.07 385.66 C 319.02 383.69 319.00 381.71 318.97 379.75 C 316.83 379.94 314.69 380.17 312.56 380.43 C 312.64 387.95 312.57 395.47 312.60 402.99 C 311.40 402.99 310.20 402.99 309.00 403.00 C 309.06 394.15 308.87 385.29 309.10 376.43 Z" />
<path fill="#ffffff" opacity="1.00" d=" M 167.31 377.38 C 169.70 376.18 172.48 376.75 175.05 376.62 C 176.88 376.78 179.60 376.22 180.54 378.30 C 181.05 380.42 180.76 382.64 180.81 384.81 C 179.61 384.80 178.40 384.80 177.20 384.81 C 177.19 383.14 177.19 381.47 177.19 379.81 C 174.79 379.81 172.40 379.81 170.01 379.81 C 170.00 381.29 169.99 382.78 169.98 384.27 C 173.42 387.41 177.48 389.92 180.53 393.44 C 180.78 396.37 181.73 400.11 179.68 402.58 C 175.71 403.25 171.42 403.36 167.48 402.52 C 165.55 400.20 166.66 396.94 166.41 394.20 C 167.60 394.19 168.79 394.18 169.99 394.18 C 169.99 396.12 170.00 398.06 170.00 400.00 C 172.40 400.00 174.79 400.00 177.18 400.00 C 177.19 398.27 177.19 396.55 177.21 394.83 C 173.91 391.75 170.04 389.29 166.94 385.99 C 166.10 383.33 165.78 379.85 167.31 377.38 Z" />
<path fill="#ffffff" opacity="1.00" d=" M 186.61 401.44 C 186.11 393.21 186.54 384.91 186.42 376.66 C 187.31 376.66 189.10 376.65 190.00 376.65 C 190.00 384.44 190.00 392.23 189.99 400.03 C 192.65 399.70 195.31 399.47 197.99 399.35 C 198.01 391.78 197.99 384.22 198.00 376.65 C 198.90 376.65 200.68 376.65 201.58 376.65 C 201.62 385.47 201.58 394.29 201.60 403.11 C 200.16 402.96 198.72 402.81 197.31 402.49 C 193.92 402.32 188.77 405.17 186.61 401.44 Z" />
<path fill="#ffffff" opacity="1.00" d=" M 207.20 376.54 C 210.47 377.21 213.79 377.28 217.06 376.53 C 218.95 376.02 222.08 376.43 221.93 379.00 C 222.11 386.99 221.94 395.00 222.00 403.00 C 220.80 402.99 219.60 402.99 218.40 402.99 C 218.41 395.24 218.40 387.49 218.40 379.75 C 215.86 379.96 213.33 380.19 210.80 380.43 C 210.82 387.95 210.80 395.47 210.81 403.00 C 209.60 402.99 208.39 402.99 207.19 403.00 C 207.20 394.18 207.18 385.36 207.20 376.54 Z" />
<path fill="#ffffff" opacity="1.00" d=" M 248.98 381.02 C 248.94 379.34 249.02 376.96 251.20 376.76 C 254.76 376.55 258.36 376.50 261.91 376.83 C 264.16 377.45 263.76 380.17 263.84 381.96 C 263.61 384.84 264.51 388.07 262.85 390.66 C 259.43 390.56 256.01 390.59 252.59 390.59 C 252.60 393.72 252.59 396.86 252.60 400.00 C 255.13 400.00 257.66 400.00 260.19 400.00 C 260.19 398.33 260.19 396.66 260.19 395.00 C 261.40 395.00 262.61 395.00 263.83 395.00 C 263.46 397.56 264.92 401.39 262.05 402.87 C 258.37 403.11 254.67 403.11 250.99 402.90 C 249.69 402.78 248.95 401.30 249.02 400.13 C 248.94 393.76 249.03 387.39 248.98 381.02 M 252.60 379.80 C 252.60 382.42 252.59 385.04 252.58 387.66 C 255.12 387.65 257.66 387.65 260.20 387.65 C 260.19 385.03 260.19 382.42 260.19 379.81 C 257.66 379.81 255.13 379.81 252.60 379.80 Z" />
<path fill="#ffffff" opacity="1.00" d=" M 267.93 376.65 C 269.21 376.65 270.50 376.66 271.79 376.67 C 273.22 383.49 274.78 390.29 276.10 397.14 C 277.61 390.30 279.19 383.48 280.69 376.65 C 281.60 376.65 283.41 376.65 284.31 376.66 C 282.13 385.43 280.07 394.23 277.81 402.99 C 276.68 402.99 275.55 402.99 274.43 403.00 C 272.20 394.24 270.12 385.43 267.93 376.65 Z" />
<path fill="#ffffff" opacity="1.00" d=" M 288.47 379.32 C 288.54 376.41 291.90 376.57 293.99 376.62 C 296.81 376.85 299.93 376.02 302.53 377.41 C 303.82 379.35 303.22 381.80 303.38 384.00 C 303.18 386.12 303.91 388.59 302.49 390.42 C 299.01 390.82 295.49 390.52 292.00 390.59 C 292.00 393.73 292.00 396.86 292.00 400.00 C 294.55 400.00 297.10 400.00 299.66 399.99 C 299.65 398.32 299.65 396.66 299.65 395.00 C 300.58 395.00 302.44 395.00 303.37 395.00 C 303.19 397.47 303.89 400.26 302.42 402.45 C 298.73 403.56 294.72 402.88 290.90 402.92 C 288.84 403.10 288.28 400.64 288.39 399.05 C 288.47 392.47 288.28 385.89 288.47 379.32 M 292.00 379.81 C 292.00 382.42 292.00 385.03 292.00 387.65 C 294.55 387.65 297.11 387.65 299.67 387.67 C 299.65 385.04 299.65 382.42 299.65 379.80 C 297.10 379.80 294.55 379.81 292.00 379.81 Z" />
<path fill="#ffffff" opacity="1.00" d=" M 327.55 377.57 C 331.62 375.85 336.51 376.53 340.79 377.30 C 341.46 379.75 341.40 382.30 341.34 384.82 C 340.10 384.81 338.88 384.80 337.66 384.80 C 337.65 383.13 337.65 381.46 337.65 379.80 C 335.29 379.80 332.93 379.81 330.57 379.81 C 330.59 381.37 330.62 382.94 330.65 384.51 C 334.07 387.42 337.90 389.96 340.92 393.27 C 341.55 396.18 341.97 399.69 340.46 402.38 C 336.59 403.52 332.26 403.13 328.30 402.65 C 325.89 400.63 327.38 396.91 327.01 394.18 C 328.20 394.18 329.40 394.19 330.60 394.21 C 330.59 396.13 330.59 398.06 330.60 400.00 C 332.96 400.00 335.32 400.00 337.69 399.99 C 337.57 398.19 337.92 396.29 337.37 394.57 C 334.26 391.45 330.33 389.22 327.38 385.94 C 326.76 383.25 326.63 380.21 327.55 377.57 Z" />
<path fill="#ffffff" opacity="1.00" d=" M 347.10 379.03 C 347.03 377.48 348.61 376.64 349.98 376.68 C 353.28 376.62 356.61 376.48 359.90 376.82 C 362.18 377.45 361.76 380.19 361.84 381.99 C 361.63 384.87 362.47 388.05 360.89 390.66 C 357.46 390.56 354.02 390.59 350.59 390.59 C 350.59 393.72 350.59 396.86 350.60 400.00 C 353.12 400.00 355.66 400.00 358.19 400.00 C 358.18 398.33 358.18 396.66 358.19 395.00 C 359.40 395.00 360.61 395.00 361.83 395.01 C 361.46 397.56 362.92 401.41 360.04 402.87 C 356.34 403.11 352.61 403.10 348.91 402.90 C 347.19 402.56 346.87 400.53 346.99 399.09 C 347.08 392.40 346.85 385.71 347.10 379.03 M 350.60 379.80 C 350.60 382.42 350.59 385.04 350.58 387.66 C 353.12 387.65 355.66 387.65 358.20 387.65 C 358.19 385.03 358.19 382.42 358.19 379.81 C 355.65 379.81 353.12 379.81 350.60 379.80 Z" />
<path fill="#ffffff" opacity="1.00" d=" M 381.29 379.03 C 381.45 376.67 384.26 376.62 386.03 376.63 C 388.91 376.77 392.02 376.10 394.71 377.40 C 396.27 379.51 395.38 382.36 395.61 384.80 C 394.40 384.80 393.20 384.81 392.01 384.82 C 392.00 383.15 391.99 381.47 391.99 379.81 C 389.60 379.81 387.21 379.81 384.82 379.81 C 384.81 381.30 384.79 382.80 384.78 384.31 C 387.84 386.90 391.01 389.39 394.06 392.02 C 396.59 394.09 395.46 397.81 395.51 400.65 C 394.84 404.10 390.53 402.71 388.05 403.04 C 385.80 402.75 382.11 403.90 381.29 400.96 C 381.06 398.71 381.19 396.44 381.20 394.19 C 382.39 394.19 383.60 394.19 384.81 394.19 C 384.80 396.12 384.81 398.06 384.81 400.00 C 387.20 400.00 389.60 400.00 391.99 400.00 C 391.99 398.28 392.00 396.57 392.02 394.86 C 389.02 392.20 385.80 389.81 382.80 387.17 C 380.29 385.28 381.27 381.71 381.29 379.03 Z" />
</g>
<g id="#333732ff">
<path fill="#333732" opacity="1.00" d=" M 262.54 156.77 C 284.40 154.77 306.73 156.04 327.85 162.30 C 361.17 171.79 390.80 192.65 411.99 219.92 C 430.18 243.23 441.74 271.61 445.00 300.99 C 447.64 326.92 445.42 353.66 436.28 378.19 C 418.71 426.44 377.35 465.48 327.90 479.61 C 306.79 485.87 284.46 487.15 262.60 485.18 C 235.52 482.41 209.20 472.70 186.88 457.12 C 166.01 442.48 148.32 423.18 135.99 400.83 C 122.72 376.86 115.64 349.41 116.00 321.99 C 115.53 304.28 118.27 286.54 123.65 269.67 C 134.69 234.95 158.05 204.54 188.06 184.02 C 210.11 168.92 235.96 159.45 262.54 156.77 M 256.13 172.11 C 225.88 177.27 197.19 191.75 175.42 213.41 C 156.91 231.34 143.34 254.24 136.09 278.95 C 128.64 303.83 128.22 330.56 133.78 355.87 C 141.18 356.15 148.59 355.94 156.00 356.00 C 156.00 332.33 156.00 308.67 156.00 285.00 C 172.67 285.00 189.33 285.00 206.00 285.00 C 206.00 305.33 206.00 325.67 206.00 346.00 C 230.00 346.00 254.00 346.00 278.00 346.00 C 278.00 336.33 278.00 326.67 278.00 317.00 C 294.67 317.00 311.33 317.00 328.00 317.00 C 328.00 306.33 328.00 295.67 328.00 285.00 C 346.00 285.00 364.00 285.00 382.00 285.00 C 382.00 305.33 382.00 325.67 382.00 346.00 C 395.00 346.00 408.00 346.00 421.00 346.00 C 421.00 349.33 421.00 352.67 421.00 356.01 C 423.74 356.03 426.49 356.00 429.23 355.83 C 434.73 330.82 434.32 304.45 427.20 279.80 C 415.93 240.19 387.86 205.71 351.15 186.98 C 322.22 171.84 288.30 166.59 256.13 172.11 M 162.02 293.02 C 162.01 298.65 162.02 304.27 162.01 309.90 C 167.66 309.90 173.32 309.91 178.97 309.90 C 178.96 304.27 178.96 298.64 178.96 293.02 C 173.31 293.01 167.66 293.01 162.02 293.02 M 182.68 293.11 C 182.85 298.71 182.73 304.31 182.77 309.91 C 188.43 309.90 194.09 309.91 199.75 309.90 C 199.73 304.27 199.74 298.65 199.74 293.02 C 194.06 293.05 188.37 292.91 182.68 293.11 M 335.59 296.00 C 335.58 301.67 335.57 307.33 335.60 312.99 C 341.21 312.95 346.83 312.95 352.45 312.99 C 352.47 307.33 352.47 301.67 352.46 296.00 C 346.83 296.02 341.21 296.02 335.59 296.00 M 358.10 296.01 C 358.09 301.66 358.09 307.31 358.10 312.97 C 363.72 312.96 369.35 312.96 374.98 312.97 C 374.98 307.31 374.98 301.66 374.98 296.02 C 369.35 296.01 363.73 296.02 358.10 296.01 M 182.75 315.54 C 182.77 321.17 182.77 326.79 182.75 332.41 C 188.43 332.41 194.12 332.44 199.80 332.39 C 199.70 326.78 199.71 321.16 199.80 315.55 C 194.11 315.51 188.43 315.53 182.75 315.54 M 162.00 315.54 C 162.02 321.16 162.02 326.79 162.00 332.41 C 167.67 332.42 173.33 332.43 178.99 332.41 C 178.95 326.78 178.95 321.16 178.99 315.54 C 173.33 315.52 167.67 315.53 162.00 315.54 M 358.16 316.71 C 358.02 322.39 358.11 328.07 358.10 333.75 C 363.73 333.73 369.35 333.74 374.98 333.74 C 374.99 328.08 374.98 322.43 374.98 316.77 C 369.37 316.74 363.77 316.81 358.16 316.71 M 285.59 323.75 C 285.59 329.43 285.56 335.12 285.61 340.80 C 291.22 340.70 296.83 340.71 302.45 340.80 C 302.48 335.11 302.47 329.43 302.46 323.75 C 296.83 323.77 291.21 323.77 285.59 323.75 M 368.66 368.41 C 368.65 371.16 368.65 373.91 368.67 376.66 C 367.86 376.66 366.23 376.66 365.42 376.66 C 365.41 377.49 365.40 379.15 365.40 379.99 C 366.21 379.99 367.85 380.01 368.66 380.02 C 368.64 385.69 368.68 391.36 368.63 397.04 C 368.69 398.86 368.31 400.92 369.60 402.45 C 371.86 403.42 374.41 402.88 376.80 403.00 C 376.81 402.18 376.84 400.52 376.85 399.70 C 375.34 399.67 373.83 399.66 372.33 399.65 C 372.36 393.10 372.34 386.56 372.34 380.01 C 373.83 380.00 375.32 379.99 376.82 379.99 C 376.82 379.16 376.81 377.49 376.81 376.66 C 375.31 376.65 373.82 376.66 372.33 376.67 C 372.35 373.91 372.35 371.16 372.34 368.41 C 371.42 368.41 369.58 368.41 368.66 368.41 M 228.14 376.39 C 227.83 385.25 228.08 394.13 228.00 403.00 C 229.20 402.99 230.40 402.99 231.60 402.99 C 231.57 395.47 231.63 387.95 231.57 380.43 C 234.10 380.19 236.64 379.95 239.19 379.76 C 239.19 387.50 239.19 395.25 239.19 403.00 C 240.39 402.99 241.60 402.99 242.81 403.00 C 242.69 394.77 243.05 386.51 242.65 378.30 C 240.67 374.48 235.42 377.47 232.09 377.30 C 230.84 376.75 229.47 376.58 228.14 376.39 M 309.10 376.43 C 308.87 385.29 309.06 394.15 309.00 403.00 C 310.20 402.99 311.40 402.99 312.60 402.99 C 312.57 395.47 312.64 387.95 312.56 380.43 C 314.69 380.17 316.83 379.94 318.97 379.75 C 319.00 381.71 319.02 383.69 319.07 385.66 C 320.24 385.62 321.41 385.59 322.59 385.56 C 322.49 382.97 322.95 380.29 322.23 377.77 C 320.04 374.89 316.04 377.31 313.11 377.31 C 311.85 376.71 310.45 376.60 309.10 376.43 M 167.31 377.38 C 165.78 379.85 166.10 383.33 166.94 385.99 C 170.04 389.29 173.91 391.75 177.21 394.83 C 177.19 396.55 177.19 398.27 177.18 400.00 C 174.79 400.00 172.40 400.00 170.00 400.00 C 170.00 398.06 169.99 396.12 169.99 394.18 C 168.79 394.18 167.60 394.19 166.41 394.20 C 166.66 396.94 165.55 400.20 167.48 402.52 C 171.42 403.36 175.71 403.25 179.68 402.58 C 181.73 400.11 180.78 396.37 180.53 393.44 C 177.48 389.92 173.42 387.41 169.98 384.27 C 169.99 382.78 170.00 381.29 170.01 379.81 C 172.40 379.81 174.79 379.81 177.19 379.81 C 177.19 381.47 177.19 383.14 177.20 384.81 C 178.40 384.80 179.61 384.80 180.81 384.81 C 180.76 382.64 181.05 380.42 180.54 378.30 C 179.60 376.22 176.88 376.78 175.05 376.62 C 172.48 376.75 169.70 376.18 167.31 377.38 M 186.61 401.44 C 188.77 405.17 193.92 402.32 197.31 402.49 C 198.72 402.81 200.16 402.96 201.60 403.11 C 201.58 394.29 201.62 385.47 201.58 376.65 C 200.68 376.65 198.90 376.65 198.00 376.65 C 197.99 384.22 198.01 391.78 197.99 399.35 C 195.31 399.47 192.65 399.70 189.99 400.03 C 190.00 392.23 190.00 384.44 190.00 376.65 C 189.10 376.65 187.31 376.66 186.42 376.66 C 186.54 384.91 186.11 393.21 186.61 401.44 M 207.20 376.54 C 207.18 385.36 207.20 394.18 207.19 403.00 C 208.39 402.99 209.60 402.99 210.81 403.00 C 210.80 395.47 210.82 387.95 210.80 380.43 C 213.33 380.19 215.86 379.96 218.40 379.75 C 218.40 387.49 218.41 395.24 218.40 402.99 C 219.60 402.99 220.80 402.99 222.00 403.00 C 221.94 395.00 222.11 386.99 221.93 379.00 C 222.08 376.43 218.95 376.02 217.06 376.53 C 213.79 377.28 210.47 377.21 207.20 376.54 M 248.98 381.02 C 249.03 387.39 248.94 393.76 249.02 400.13 C 248.95 401.30 249.69 402.78 250.99 402.90 C 254.67 403.11 258.37 403.11 262.05 402.87 C 264.92 401.39 263.46 397.56 263.83 395.00 C 262.61 395.00 261.40 395.00 260.19 395.00 C 260.19 396.66 260.19 398.33 260.19 400.00 C 257.66 400.00 255.13 400.00 252.60 400.00 C 252.59 396.86 252.60 393.72 252.59 390.59 C 256.01 390.59 259.43 390.56 262.85 390.66 C 264.51 388.07 263.61 384.84 263.84 381.96 C 263.76 380.17 264.16 377.45 261.91 376.83 C 258.36 376.50 254.76 376.55 251.20 376.76 C 249.02 376.96 248.94 379.34 248.98 381.02 M 267.93 376.65 C 270.12 385.43 272.20 394.24 274.43 403.00 C 275.55 402.99 276.68 402.99 277.81 402.99 C 280.07 394.23 282.13 385.43 284.31 376.66 C 283.41 376.65 281.60 376.65 280.69 376.65 C 279.19 383.48 277.61 390.30 276.10 397.14 C 274.78 390.29 273.22 383.49 271.79 376.67 C 270.50 376.66 269.21 376.65 267.93 376.65 M 288.47 379.32 C 288.28 385.89 288.47 392.47 288.39 399.05 C 288.28 400.64 288.84 403.10 290.90 402.92 C 294.72 402.88 298.73 403.56 302.42 402.45 C 303.89 400.26 303.19 397.47 303.37 395.00 C 302.44 395.00 300.58 395.00 299.65 395.00 C 299.65 396.66 299.65 398.32 299.66 399.99 C 297.10 400.00 294.55 400.00 292.00 400.00 C 292.00 396.86 292.00 393.73 292.00 390.59 C 295.49 390.52 299.01 390.82 302.49 390.42 C 303.91 388.59 303.18 386.12 303.38 384.00 C 303.22 381.80 303.82 379.35 302.53 377.41 C 299.93 376.02 296.81 376.85 293.99 376.62 C 291.90 376.57 288.54 376.41 288.47 379.32 M 327.55 377.57 C 326.63 380.21 326.76 383.25 327.38 385.94 C 330.33 389.22 334.26 391.45 337.37 394.57 C 337.92 396.29 337.57 398.19 337.69 399.99 C 335.32 400.00 332.96 400.00 330.60 400.00 C 330.59 398.06 330.59 396.13 330.60 394.21 C 329.40 394.19 328.20 394.18 327.01 394.18 C 327.38 396.91 325.89 400.63 328.30 402.65 C 332.26 403.13 336.59 403.52 340.46 402.38 C 341.97 399.69 341.55 396.18 340.92 393.27 C 337.90 389.96 334.07 387.42 330.65 384.51 C 330.62 382.94 330.59 381.37 330.57 379.81 C 332.93 379.81 335.29 379.80 337.65 379.80 C 337.65 381.46 337.65 383.13 337.66 384.80 C 338.88 384.80 340.10 384.81 341.34 384.82 C 341.40 382.30 341.46 379.75 340.79 377.30 C 336.51 376.53 331.62 375.85 327.55 377.57 M 347.10 379.03 C 346.85 385.71 347.08 392.40 346.99 399.09 C 346.87 400.53 347.19 402.56 348.91 402.90 C 352.61 403.10 356.34 403.11 360.04 402.87 C 362.92 401.41 361.46 397.56 361.83 395.01 C 360.61 395.00 359.40 395.00 358.19 395.00 C 358.18 396.66 358.18 398.33 358.19 400.00 C 355.66 400.00 353.12 400.00 350.60 400.00 C 350.59 396.86 350.59 393.72 350.59 390.59 C 354.02 390.59 357.46 390.56 360.89 390.66 C 362.47 388.05 361.63 384.87 361.84 381.99 C 361.76 380.19 362.18 377.45 359.90 376.82 C 356.61 376.48 353.28 376.62 349.98 376.68 C 348.61 376.64 347.03 377.48 347.10 379.03 M 381.29 379.03 C 381.27 381.71 380.29 385.28 382.80 387.17 C 385.80 389.81 389.02 392.20 392.02 394.86 C 392.00 396.57 391.99 398.28 391.99 400.00 C 389.60 400.00 387.20 400.00 384.81 400.00 C 384.81 398.06 384.80 396.12 384.81 394.19 C 383.60 394.19 382.39 394.19 381.20 394.19 C 381.19 396.44 381.06 398.71 381.29 400.96 C 382.11 403.90 385.80 402.75 388.05 403.04 C 390.53 402.71 394.84 404.10 395.51 400.65 C 395.46 397.81 396.59 394.09 394.06 392.02 C 391.01 389.39 387.84 386.90 384.78 384.31 C 384.79 382.80 384.81 381.30 384.82 379.81 C 387.21 379.81 389.60 379.81 391.99 379.81 C 391.99 381.47 392.00 383.15 392.01 384.82 C 393.20 384.81 394.40 384.80 395.61 384.80 C 395.38 382.36 396.27 379.51 394.71 377.40 C 392.02 376.10 388.91 376.77 386.03 376.63 C 384.26 376.62 381.45 376.67 381.29 379.03 Z" />
<path fill="#333732" opacity="1.00" d=" M 248.00 219.00 C 250.33 212.66 252.67 206.33 255.00 200.00 C 257.33 206.33 259.67 212.66 262.00 219.00 C 257.33 219.00 252.67 219.00 248.00 219.00 Z" />
<path fill="#333732" opacity="1.00" d=" M 290.34 216.33 C 290.57 216.00 291.02 215.34 291.24 215.01 C 291.49 216.32 291.31 217.65 290.62 218.81 C 288.09 223.89 285.91 229.14 283.34 234.20 C 280.82 230.09 276.57 227.46 273.74 223.59 C 277.27 222.84 280.24 220.64 283.57 219.36 C 284.85 218.78 286.15 218.23 287.43 217.64 C 288.40 217.21 289.37 216.77 290.34 216.33 Z" />
<path fill="#333732" opacity="1.00" d=" M 218.21 216.82 C 218.61 216.73 219.41 216.54 219.81 216.44 C 225.54 219.30 231.46 221.77 237.18 224.65 C 233.08 227.23 230.44 231.49 226.50 234.29 C 225.98 230.69 223.57 227.79 222.37 224.43 C 221.77 223.15 221.23 221.85 220.67 220.55 C 220.23 219.07 219.30 217.87 218.21 216.82 Z" />
<path fill="#333732" opacity="1.00" d=" M 249.59 227.78 C 255.59 226.22 262.27 227.08 267.51 230.47 C 273.55 234.14 277.52 240.92 277.92 247.96 C 278.54 255.78 274.71 263.85 268.11 268.14 C 261.94 272.41 253.58 273.13 246.70 270.22 C 239.01 267.07 233.51 259.34 233.08 251.04 C 232.12 240.63 239.46 230.31 249.59 227.78 Z" />
<path fill="#333732" opacity="1.00" d=" M 285.00 245.00 C 291.33 247.33 297.66 249.66 303.99 252.00 C 297.66 254.34 291.33 256.67 285.00 259.00 C 285.00 254.33 285.00 249.67 285.00 245.00 Z" />
<path fill="#333732" opacity="1.00" d=" M 206.00 253.00 C 212.33 250.67 218.66 248.33 225.00 246.00 C 225.00 250.67 225.00 255.33 225.00 260.00 C 218.66 257.67 212.33 255.33 206.00 253.00 Z" />
<path fill="#333732" opacity="1.00" d=" M 229.48 267.99 C 232.46 271.76 236.39 274.66 239.30 278.49 C 235.72 279.12 232.77 281.38 229.43 282.64 C 228.13 283.24 226.81 283.79 225.50 284.35 C 224.02 284.86 222.80 285.86 221.58 286.79 C 221.42 284.48 222.76 282.52 223.67 280.51 C 225.66 276.36 227.50 272.14 229.48 267.99 Z" />
<path fill="#333732" opacity="1.00" d=" M 271.97 278.48 C 275.79 275.56 278.65 271.59 282.49 268.71 C 283.12 272.27 285.39 275.21 286.62 278.57 C 287.21 279.86 287.77 281.17 288.44 282.44 C 289.03 283.87 289.53 285.33 289.95 286.83 C 283.95 284.04 277.93 281.32 271.97 278.48 Z" />
<path fill="#333732" opacity="1.00" d=" M 249.00 280.00 C 253.67 280.00 258.33 280.00 263.00 280.00 C 260.67 286.34 258.33 292.67 256.00 299.00 C 253.67 292.67 251.33 286.34 249.00 280.00 Z" />
<path fill="#333732" opacity="1.00" d=" M 362.82 321.43 C 365.31 321.45 367.79 321.45 370.28 321.42 C 370.29 323.95 370.29 326.49 370.29 329.02 C 367.79 329.02 365.30 329.02 362.82 329.02 C 362.81 326.49 362.81 323.96 362.82 321.43 Z" />
<path fill="#333732" opacity="1.00" d=" M 252.60 379.80 C 255.13 379.81 257.66 379.81 260.19 379.81 C 260.19 382.42 260.19 385.03 260.20 387.65 C 257.66 387.65 255.12 387.65 252.58 387.66 C 252.59 385.04 252.60 382.42 252.60 379.80 Z" />
<path fill="#333732" opacity="1.00" d=" M 292.00 379.81 C 294.55 379.81 297.10 379.80 299.65 379.80 C 299.65 382.42 299.65 385.04 299.67 387.67 C 297.11 387.65 294.55 387.65 292.00 387.65 C 292.00 385.03 292.00 382.42 292.00 379.81 Z" />
<path fill="#333732" opacity="1.00" d=" M 350.60 379.80 C 353.12 379.81 355.65 379.81 358.19 379.81 C 358.19 382.42 358.19 385.03 358.20 387.65 C 355.66 387.65 353.12 387.65 350.58 387.66 C 350.59 385.04 350.60 382.42 350.60 379.80 Z" />
</g>
<g id="#d9fef1ff">
<path fill="#d9fef1" opacity="1.00" d=" M 162.02 293.02 C 167.66 293.01 173.31 293.01 178.96 293.02 C 178.96 298.64 178.96 304.27 178.97 309.90 C 173.32 309.91 167.66 309.90 162.01 309.90 C 162.02 304.27 162.01 298.65 162.02 293.02 Z" />
<path fill="#d9fef1" opacity="1.00" d=" M 358.10 296.01 C 363.73 296.02 369.35 296.01 374.98 296.02 C 374.98 301.66 374.98 307.31 374.98 312.97 C 369.35 312.96 363.72 312.96 358.10 312.97 C 358.09 307.31 358.09 301.66 358.10 296.01 Z" />
<path fill="#d9fef1" opacity="1.00" d=" M 182.75 315.54 C 188.43 315.53 194.11 315.51 199.80 315.55 C 199.71 321.16 199.70 326.78 199.80 332.39 C 194.12 332.44 188.43 332.41 182.75 332.41 C 182.77 326.79 182.77 321.17 182.75 315.54 Z" />
<path fill="#d9fef1" opacity="1.00" d=" M 285.59 323.75 C 291.21 323.77 296.83 323.77 302.46 323.75 C 302.47 329.43 302.48 335.11 302.45 340.80 C 296.83 340.71 291.22 340.70 285.61 340.80 C 285.56 335.12 285.59 329.43 285.59 323.75 Z" />
</g>
<g id="#fffee7ff">
<path fill="#fffee7" opacity="1.00" d=" M 182.68 293.11 C 188.37 292.91 194.06 293.05 199.74 293.02 C 199.74 298.65 199.73 304.27 199.75 309.90 C 194.09 309.91 188.43 309.90 182.77 309.91 C 182.73 304.31 182.85 298.71 182.68 293.11 M 187.43 297.72 C 187.45 300.20 187.46 302.69 187.43 305.18 C 189.96 305.18 192.49 305.18 195.02 305.18 C 195.02 302.69 195.02 300.20 195.02 297.71 C 192.49 297.71 189.96 297.71 187.43 297.72 Z" />
<path fill="#fffee7" opacity="1.00" d=" M 335.59 296.00 C 341.21 296.02 346.83 296.02 352.46 296.00 C 352.47 301.67 352.47 307.33 352.45 312.99 C 346.83 312.95 341.21 312.95 335.60 312.99 C 335.57 307.33 335.58 301.67 335.59 296.00 Z" />
<path fill="#fffee7" opacity="1.00" d=" M 162.00 315.54 C 167.67 315.53 173.33 315.52 178.99 315.54 C 178.95 321.16 178.95 326.78 178.99 332.41 C 173.33 332.43 167.67 332.42 162.00 332.41 C 162.02 326.79 162.02 321.16 162.00 315.54 Z" />
<path fill="#fffee7" opacity="1.00" d=" M 358.16 316.71 C 363.77 316.81 369.37 316.74 374.98 316.77 C 374.98 322.43 374.99 328.08 374.98 333.74 C 369.35 333.74 363.73 333.73 358.10 333.75 C 358.11 328.07 358.02 322.39 358.16 316.71 M 362.82 321.43 C 362.81 323.96 362.81 326.49 362.82 329.02 C 365.30 329.02 367.79 329.02 370.29 329.02 C 370.29 326.49 370.29 323.95 370.28 321.42 C 367.79 321.45 365.31 321.45 362.82 321.43 Z" />
</g>
<g id="#333733ff">
<path fill="#333733" opacity="1.00" d=" M 187.43 297.72 C 189.96 297.71 192.49 297.71 195.02 297.71 C 195.02 300.20 195.02 302.69 195.02 305.18 C 192.49 305.18 189.96 305.18 187.43 305.18 C 187.46 302.69 187.45 300.20 187.43 297.72 Z" />
</g>
</svg>
